<svg version="1.0" xmlns="http://www.w3.org/2000/svg" width="1280.000000pt" height="240.000000pt" viewBox="0 0 1280.000000 240.000000" preserveAspectRatio="xMidYMid meet"> <metadata> Created by potrace 1.15, written by Peter Selinger 2001-2017 </metadata> <g transform="translate(0.000000,240.000000) scale(0.100000,-0.100000)"  fill="#ffffff" stroke=""> <path d="M11879 2137 c-24 -13 -57 -43 -74 -66 -27 -39 -30 -50 -30 -121 0 -71 3 -82 30 -121 42 -59 102 -89 180 -89 78 0 138 30 180 89 27 39 30 50 30 121 0 71 -3 82 -30 121 -42 59 -102 89 -180 89 -45 0 -74 -6 -106 -23z m168 -43 c66 -32 103 -105 89 -179 -9 -48 -73 -112 -121 -121 -141 -26 -241 147 -148 257 48 57 116 73 180 43z"/> <path d="M11890 1954 l0 -115 28 3 c24 3 27 7 30 46 3 42 4 43 35 40 28 -3 32 -7 40 -45 7 -39 11 -43 38 -43 29 0 29 1 23 43 -4 23 -11 50 -15 59 -6 10 -5 19 1 23 17 10 11 71 -8 88 -14 13 -38 17 -95 17 l-77 0 0 -116z"/> <path d="M5250 1695 l0 -45 45 0 45 0 0 -350 0 -350 -45 0 -45 0 0 -45 0 -46 103 3 102 3 3 31 3 32 49 -33 c204 -137 442 82 390 358 -44 235 -249 336 -409 201 l-31 -26 0 140 c0 77 -3 147 -6 156 -5 13 -24 16 -105 16 l-99 0 0 -45z m441 -298 c52 -35 81 -97 87 -182 11 -167 -70 -282 -184 -260 -38 7 -98 54 -119 94 -7 15 -16 68 -20 118 -7 88 -6 96 19 148 47 95 143 132 217 82z"/> <path d="M5934 1716 c-11 -47 -2 -61 44 -64 l42 -3 0 -350 0 -349 -45 0 -45 0 0 -45 0 -45 145 0 145 0 0 45 0 45 -40 0 -40 0 -2 393 -3 392 -97 3 c-96 3 -98 2 -104 -22z"/> <path d="M2983 1703 c-52 -18 -135 -91 -168 -147 -111 -189 -85 -476 55 -616 117 -117 302 -127 422 -21 l37 32 3 -43 3 -43 55 0 55 0 3 213 2 212 -155 0 -155 0 0 -29 c0 -16 -3 -36 -6 -45 -5 -14 7 -16 95 -16 l101 0 0 -27 c0 -42 -43 -125 -81 -157 -134 -113 -292 -53 -349 132 -42 135 -17 305 57 391 38 45 100 80 142 81 79 1 177 -68 207 -146 l17 -45 56 3 56 3 0 135 0 135 -52 3 -53 3 0 -51 0 -52 -32 33 c-53 52 -122 79 -203 78 -38 0 -89 -7 -112 -16z"/> <path d="M1230 1626 l0 -76 30 0 30 0 0 -265 0 -265 -30 0 -30 0 0 -81 0 -81 263 4 c246 4 265 5 312 26 100 46 144 113 145 220 0 43 -6 75 -20 101 -20 40 -73 91 -93 91 -6 0 5 13 24 30 49 40 62 76 57 159 -3 58 -9 78 -34 113 -16 24 -50 54 -74 68 -44 25 -49 25 -312 28 l-268 3 0 -75z m445 -90 c70 -30 81 -93 23 -141 -27 -23 -38 -25 -124 -25 l-94 0 0 90 0 90 80 0 c47 0 95 -6 115 -14z m2 -321 c41 -8 83 -57 83 -97 0 -21 -10 -40 -34 -64 l-34 -34 -106 0 -106 0 0 100 0 99 68 3 c70 4 77 4 129 -7z"/> <path d="M7091 1355 l-112 -345 -29 0 -30 0 0 -75 0 -76 107 3 107 3 27 85 26 85 133 0 134 0 26 -85 26 -85 107 -3 107 -3 0 75 0 75 -32 3 -31 3 -115 343 -114 342 -112 0 -112 0 -113 -345z m268 -12 c22 -78 41 -146 41 -152 0 -13 -170 -16 -170 -3 -1 8 84 301 86 299 1 -1 20 -66 43 -144z"/> <path d="M2223 1504 c-23 -9 -62 -33 -88 -56 -148 -130 -148 -396 0 -526 64 -56 127 -76 229 -70 87 5 147 28 199 77 34 31 77 111 77 142 0 20 -4 21 -46 15 -26 -3 -66 -6 -90 -6 -37 0 -45 -4 -60 -29 -51 -86 -169 -78 -214 13 -38 80 -48 76 200 76 180 0 222 3 226 14 9 23 -14 124 -42 187 -35 76 -106 143 -177 164 -63 19 -159 18 -214 -1z m183 -150 c22 -15 54 -61 54 -79 0 -3 -54 -5 -120 -5 -66 0 -120 2 -120 5 0 20 35 67 58 79 36 20 97 20 128 0z"/> <path d="M4505 1501 c-22 -10 -51 -31 -65 -46 l-25 -27 -5 39 -5 38 -102 3 -103 3 0 -46 0 -45 45 0 45 0 0 -235 0 -235 -45 0 -45 0 0 -45 0 -46 148 3 147 3 0 40 0 40 -48 3 -49 3 4 167 c3 161 4 169 31 214 34 58 75 88 119 88 79 0 87 -31 88 -337 l0 -223 93 0 c99 0 117 7 117 46 0 45 -10 54 -57 54 l-45 0 4 168 c3 161 4 169 30 213 39 66 98 100 147 84 42 -13 46 -38 51 -305 l5 -255 100 0 c97 0 100 1 103 24 2 12 1 34 -2 47 -5 20 -13 24 -46 24 l-39 0 -3 228 c-3 216 -4 229 -26 263 -28 46 -75 69 -140 69 -65 0 -91 -11 -141 -56 l-41 -36 -20 23 c-10 13 -19 27 -20 30 0 14 -82 39 -123 39 -23 0 -60 -9 -82 -19z"/> <path d="M6500 1511 c-73 -15 -141 -64 -182 -131 -56 -92 -64 -267 -18 -365 50 -103 131 -157 247 -163 116 -7 201 32 254 115 46 73 41 83 -35 83 -55 0 -66 -3 -71 -19 -10 -31 -71 -79 -110 -87 -27 -5 -47 -1 -83 18 -55 28 -89 80 -98 152 l-7 46 228 0 227 0 -7 57 c-21 170 -119 279 -265 296 -25 3 -61 2 -80 -2z m130 -114 c39 -25 69 -72 80 -122 l8 -35 -160 0 -160 0 7 33 c14 64 42 101 100 131 42 22 86 20 125 -7z"/> <path d="M8869 1510 c-94 -16 -161 -69 -188 -149 -23 -69 -21 -71 79 -71 81 0 90 2 90 19 0 28 37 69 70 76 62 14 120 -27 120 -84 0 -15 -15 -19 -97 -29 -158 -18 -240 -55 -284 -126 -16 -25 -19 -45 -17 -103 3 -62 7 -76 34 -109 16-21 48 -47 69 -58 76 -39 221 -31 280 16 l25 19 0 -25 0 -26 110 0 110 0 0 70 c0 68 -1 70 -25 70 l-25 0 0 177 c0 159 -2 181 -21 220 -34 71 -101 106 -219 116 -36 3 -86 2 -111 -3z m181 -377 c-1 -29 -27 -93 -45 -113 -10 -11 -33 -24-52 -31 -85 -28 -157 47 -105 111 20 25 96 48 160 49 34 1 42 -2 42 -16z"/><path d="M9635 1506 c-17 -7 -37 -21 -45 -31 -14 -17 -15 -16 -20 6 -6 23 -9 24 -123 27 l-117 3 0 -71 0 -70 30 0 30 0 0 -185 0 -185 -30 0 -30 0 0 -70 0 -71 158 3 157 3 3 68 3 67 -41 0 -40 0 0 120 c0 139 12 179 62 210 24 15 50 20 101 20 l67 0 0 75 c0 72 -1 76 -26 85 -35 14 -103 12 -139 -4z"/><path d="M9993 1499 c-65 -25 -128 -88 -162 -159 -22 -47 -25 -69 -26 -155 0 -87 3 -107 26 -156 31 -65 82 -120 142 -151 57 -29 183 -36 259 -14 93 27 187 129 188 204 0 22 -1 22 -87 15 -86 -6 -87 -6 -129 -51 -41 -43 -45 -44 -89 -40 -25 3 -55 14 -67 24 -21 19 -57 89 -58 112 0 9 52 12 225 12 256 0 234 -10 214 95 -34 183 -148 286 -317 284 -42 0 -86 -8 -119 -20z m203 -163 c59 -59 51 -66 -81 -66 -73 0 -115 4 -115 10 0 19 33 61 59 75 14 8 43 14 65 15 30 0 45 -7 72 -34z"/><path d="M3695 1498 c-69 -24 -120 -84 -139 -160 l-6 -28 60 0 c60 0 61 1 75 34 8 19 27 44 42 56 24 19 38 21 92 18 57 -4 67 -8 92 -36 23 -25 29 -42 29 -77 l0 -45 -37 0 c-97 0 -243 -36 -301 -74 -92 -59 -94 -205 -6 -288 40 -37 74 -48 147 -48 66 0 148 30 177 65 14 17 15 16 20 -16 l5 -34 103 -3 c100 -3 102 -2 102 20 0 54 -10 68 -50 68 l-38 0 -4 198 c-4 172 -7 203 -25 243 -22 50 -67 89 -122 108 -42 14 -175 13 -216 -1z m245 -373 c0 -62 -14 -97 -57-137 -70 -67 -170 -61 -208 12 -45 87 12 142 175 169 95 15 90 18 90 -44z"/><path d="M7686 1479 c-3 -17 -6 -49 -6 -70 0 -36 2 -39 29 -39 28 0 29 -3 56-102 16 -57 47 -170 70 -253 l42 -150 91 -3 c79 -2 92 0 100 15 5 10 27 93 48 185 20 92 39 166 41 165 1 -2 22 -84 46 -183 l44 -179 90 -3 c64 -2 93 1 100 10 5 7 38 122 73 256 l64 242 29 0 28 0 -3 68 -3 67 -137 3 -138 3 0 -71 0-70 30 0 c34 0 35 15 -9 -170 l-27 -115 -43 200 c-23 110 -44 206 -46 213 -3 8 -32 12 -98 12 l-93 0 -44 -211 c-31 -150 -46 -206 -52 -193 -5 10 -21 73-37 139 l-28 120 29 3 29 3 -3 67 -3 67 -131 3 -131 3 -7 -32z"/><path d="M10760 1329 c-45 -18 -100 -81 -115 -133 -41 -137 9 -279 112 -322 45 -19 147 -18 189 2 47 23 99 86 114 140 17 58 8 159 -18 209 -25 50 -56 80-104 100 -41 17 -139 19 -178 4z m138 -79 c83 -51 95 -208 22 -281 -100 -101-220 24 -181 189 8 30 23 60 39 75 46 42 72 46 120 17z"/><path d="M11090 1300 c0 -38 2 -40 30 -40 l30 0 0 -160 0 -160 -30 0 c-28 0-30 -3 -30 -35 l0 -35 115 0 115 0 0 35 c0 33 -2 35 -35 35 l-35 0 0 113 c0 93 3 117 20 144 25 41 72 65 118 61 37 -3 37 -3 40 40 l3 42 -60 0 c-49 0 -65-4 -90 -25 l-30 -26 -3 23 c-3 21 -8 23 -80 26 l-78 3 0 -41z"/><path d="M11535 1321 c-66 -40 -95 -100 -95 -194 0 -108 34 -176 104 -208 53-24 122 -24 169 0 l37 19 0 -39 c0 -26 -8 -47 -24 -66 -21 -25 -31 -28 -81-28 -52 0 -59 3 -83 33 -24 28 -33 32 -74 32 -52 0 -56 -6 -33 -50 47 -92 211-125 316 -64 67 39 74 64 77 297 l3 207 30 0 c29 0 30 2 27 38 l-3 37 -73 3c-66 3 -74 1 -79 -17 -5 -20 -5 -20 -41 0 -48 25 -136 26 -177 0z m145 -66c50 -26 70 -65 70 -138 0 -55 -4 -70 -25 -95 -36 -43 -77 -58 -116 -42 -48 20-69 63 -69 140 0 116 62 176 140 135z"/></g></svg>