
<svg version="1.1" id="Layer_1" xmlns="http://www.w3.org/2000/svg" xmlns:xlink="http://www.w3.org/1999/xlink" x="0px" y="0px" viewBox="0 0 422 422" style="enable-background:new 0 0 422 422;" xml:space="preserve"><style type="text/css">.st0{fill:none;stroke:#e2e2e2;stroke-width:53;}.st1{fill-rule:evenodd;clip-rule:evenodd;fill:#e2e2e2;}</style><title>18</title><desc>Created with Sketch.</desc><g id="Registration-Mobile"><g id="over18Iconv2.png" transform="translate(0.000000, -444.000000)"><g transform="translate(0.000000, 444.000000)"><circle id="Oval-4" class="st0" cx="211" cy="211" r="184.5"/><path class="st1" d="M108.8,145.4c2.1-1.2,4-1.6,6.5-1.6h26.4c3.3,0,5.3,1.9,5.3,5.3v112.6c0,3.3-1.9,5.3-5.3,5.3h-24.6c-3.3,0-5.3-1.9-5.3-5.3v-81.1L90,192.2c-3.5,1.9-6.3,0.4-6.3-3.7V163c0-2.8,1.2-4.8,3.7-6.2L108.8,145.4z M239.4,202.5c11.1,6.7,16.8,17.5,16.8,29.8c0,22.5-16.2,37.1-47,37.1s-47-14.6-47-37.1c0-12.3,5.7-23.1,16.8-29.8c-7.8-5.7-12.5-14-12.5-24.6c0-23.2,18.3-36.6,42.8-36.6s42.8,13.4,42.8,36.6C251.9,188.5,247.2,196.8,239.4,202.5z M209.2,172.3c-7,0-11.1,3-11.1,9c0,6,4,9,11.1,9c6.3,0,11.1-3,11.1-9C220.3,175.3,215.5,172.3,209.2,172.3z M209.2,237.8c7.4,0,11.8-3.9,11.8-10.4c0-6.5-4.4-10.4-11.8-10.4c-7.4,0-11.8,3.9-11.8,10.4C197.4,233.9,201.8,237.8,209.2,237.8z M348.8,189.6c3.3,0,5.3,1.9,5.3,5.3V216c0,3.3-1.9,5.3-5.3,5.3h-22.9v22.9c0,3.3-1.9,5.3-5.3,5.3h-21.1c-3.3,0-5.3-1.9-5.3-5.3v-22.9h-22.9c-3.3,0-5.3-1.9-5.3-5.3v-21.1c0-3.3,1.9-5.3,5.3-5.3h22.9v-22.9c0-3.3,1.9-5.3,5.3-5.3h21.1c3.3,0,5.3,1.9,5.3,5.3v22.9H348.8z"/></g></g></g></svg>
