<?xml version="1.0" encoding="utf-8"?>
<!-- Generator: Adobe Illustrator 23.0.0, SVG Export Plug-In . SVG Version: 6.00 Build 0)  -->
<svg version="1.1" id="Layer_1" xmlns="http://www.w3.org/2000/svg" xmlns:xlink="http://www.w3.org/1999/xlink" x="0px" y="0px"
	 viewBox="0 0 472.3 420.5" style="enable-background:new 0 0 472.3 420.5;" xml:space="preserve">
<style type="text/css">
	.st0{fill:#932309;}
	.st1{fill:#E84118;}
	.st2{fill:#FFFFFF;}
	.st3{fill:#4DB545;}
	.st4{fill:#FAAB32;}
	.st5{fill:#6E1D0A;}
	.st6{enable-background:new    ;}
</style>
<g>
	<g>
		<path class="st0" d="M419.8,196.1h-12c-14.2-44.1-45.7-80.4-86.5-101c5.9-4.4,8.2-11.7,5.9-18.6c-2.3-7-8.6-11.6-16-11.6h-32.7
			c-3.8,0-7.2-2.4-8.4-6.1L260,27.7c-2.3-7-8.6-11.6-16-11.6l0,0c-7.4,0-13.7,4.6-16,11.6l-10.1,31.1c-1.2,3.6-4.5,6.1-8.4,6.1H177
			c-7.4,0-13.7,4.6-16,11.6s0.1,14.3,5.9,18.6c-40.8,20.6-72.3,56.9-86.5,101h-12c-29,0-52.5,23.6-52.5,52.5
			c0,29,23.6,52.5,52.5,52.5h12c22.2,69.2,87.2,119.4,163.7,119.4s141.4-50.2,163.7-119.4h12c29,0,52.5-23.6,52.5-52.5
			C472.3,219.6,448.8,196.1,419.8,196.1L419.8,196.1z M186.2,157.3c-1.3,6.4,1.1,12.9,6.6,16.9c3,2.2,6.4,3.3,9.9,3.3
			c3.4,0,6.9-1.1,9.9-3.3l26.5-19.2c3.1-2.2,7.2-2.2,10.3,0l26.5,19.2c6,4.4,13.7,4.4,19.7,0c5.5-4,7.9-10.4,6.6-16.9
			c15.2,9.7,27.8,23,36.6,38.8H149.6C158.4,180.3,171,167,186.2,157.3z M338.7,301.1c-18.5,33.2-53.9,55.7-94.5,55.7
			s-76-22.5-94.5-55.7H338.7z"/>
	</g>
	<g>
		<g>
			<path class="st1" d="M228.2,64.7c-92.7,0-167.9,75.2-167.9,167.9s75.2,167.9,167.9,167.9s167.9-75.2,167.9-167.9
				C396.1,139.9,320.9,64.7,228.2,64.7L228.2,64.7z M228.2,344.8c-62,0-112.2-50.2-112.2-112.2s50.2-112.2,112.2-112.2
				s112.2,50.2,112.2,112.2S290.1,344.8,228.2,344.8L228.2,344.8z"/>
		</g>
		<path class="st2" d="M384.8,281.1c-24.3,62.8-85.2,107.4-156.6,107.4S95.9,343.9,71.6,281.1h-4.2
			c20.8,69.1,84.9,119.4,160.8,119.4s140-50.3,160.8-119.4H384.8L384.8,281.1z"/>
		<path class="st3" d="M403.8,184.1H52.5C25.7,184.1,4,205.8,4,232.6s21.7,48.5,48.5,48.5h351.3c26.8,0,48.5-21.7,48.5-48.5
			S430.6,184.1,403.8,184.1z"/>
		<g>
			<path class="st4" d="M64.7,207.5l3.7,11.5c0.6,1.9,2.4,3.3,4.5,3.3H85c4.6,0,6.5,5.9,2.8,8.6L78,238c-1.7,1.2-2.3,3.3-1.7,5.3
				l3.7,11.5c1.4,4.4-3.6,8-7.3,5.3l-9.8-7.1c-1.7-1.2-3.9-1.2-5.6,0l-9.8,7.1c-3.7,2.7-8.7-0.9-7.3-5.3l3.7-11.5
				c0.6-1.9-0.1-4.1-1.7-5.3l-9.8-7.1c-3.7-2.7-1.8-8.6,2.8-8.6h12.1c2,0,3.9-1.3,4.5-3.3l3.7-11.5
				C57.2,203.2,63.3,203.2,64.7,207.5L64.7,207.5z"/>
			<path class="st4" d="M400.6,207.5l3.7,11.5c0.6,1.9,2.4,3.3,4.5,3.3h12.1c4.6,0,6.5,5.9,2.8,8.6l-9.8,7.1
				c-1.7,1.2-2.3,3.3-1.7,5.3l3.7,11.5c1.4,4.4-3.6,8-7.3,5.3l-9.8-7.1c-1.7-1.2-3.9-1.2-5.6,0l-9.8,7.1c-3.7,2.7-8.7-0.9-7.3-5.3
				l3.7-11.5c0.6-1.9-0.1-4.1-1.7-5.3l-9.8-7.1c-3.7-2.7-1.8-8.6,2.8-8.6h12.1c2,0,3.9-1.3,4.5-3.3l3.7-11.5
				C393,203.2,399.2,203.2,400.6,207.5L400.6,207.5z"/>
			<g>
				<path class="st4" d="M240.3,12.8L250.4,44c1.7,5.3,6.6,8.8,12.2,8.8h32.7c12.4,0,17.5,15.9,7.5,23.1l-26.5,19.2
					c-4.5,3.3-6.4,9-4.6,14.3l10.1,31.1c3.8,11.8-9.7,21.6-19.7,14.3l-26.5-19.2c-4.5-3.3-10.6-3.3-15,0l-26.5,19.2
					c-10,7.3-23.5-2.5-19.7-14.3l10.1-31.1c1.7-5.3-0.2-11-4.6-14.3L153.5,76c-10-7.3-4.9-23.1,7.5-23.1h32.7
					c5.5,0,10.5-3.6,12.2-8.8L216,12.8C219.8,1.1,236.5,1.1,240.3,12.8L240.3,12.8z"/>
				<g>
					<path class="st5" d="M243.2,180.1h-33.3c-2.2,0-4,1.8-4,4s1.8,4,4,4h33.3c2.2,0,4-1.8,4-4C247.2,181.9,245.4,180.1,243.2,180.1
						z"/>
					<path class="st5" d="M403.8,180.1h-12c-14.2-44.1-45.7-80.4-86.4-101c5.9-4.4,8.3-11.7,6-18.7c-2.3-7.1-8.6-11.6-16-11.6h-32.7
						c-3.8,0-7.2-2.4-8.4-6.1l-10.1-31.1c-2.3-7-8.6-11.6-16-11.6l0,0c-7.4,0-13.7,4.6-16,11.6l-10.1,31.1c-1.2,3.6-4.5,6.1-8.4,6.1
						H161c-7.4,0-13.7,4.6-16,11.6s0.1,14.3,6,18.7c-40.8,20.6-72.3,56.9-86.4,101H52.5c-29,0-52.5,23.6-52.5,52.5
						s23.6,52.5,52.5,52.5h12c22.2,69.2,87.2,119.4,163.6,119.4s141.4-50.2,163.6-119.4h12c29,0,52.5-23.6,52.5-52.5
						S432.8,180.1,403.8,180.1z M383.4,180.1h-51.8c-10.8-21.3-28-38.7-49-49.9l-7.1-21.9c-1.2-3.6,0.1-7.6,3.2-9.8l19.3-14
						C338,103.3,369.1,137.8,383.4,180.1L383.4,180.1z M152.6,62.9c1-2.9,3.7-6.1,8.4-6.1h32.7c7.3,0,13.7-4.7,16-11.6l10.1-31.1
						c1.5-4.5,5.3-6.1,8.4-6.1l0,0c3.1,0,6.9,1.6,8.4,6.1l10.1,31.1c2.3,6.9,8.7,11.6,16,11.6h32.7c4.7,0,7.4,3.1,8.4,6.1
						c1,2.9,0.6,7.1-3.2,9.8L274,92c-5.9,4.3-8.4,11.8-6.1,18.8l10.1,31.1c1.5,4.5-0.7,8-3.2,9.8s-6.5,2.8-10.3,0L238,132.5
						c-3-2.1-6.4-3.2-9.9-3.2s-6.9,1.1-9.9,3.2l-26.5,19.2c-3.8,2.8-7.8,1.8-10.3,0s-4.7-5.4-3.2-9.8l10.1-31.1
						c2.3-6.9-0.2-14.5-6.1-18.8l-26.5-19.2C152,70,151.7,65.8,152.6,62.9L152.6,62.9z M158.3,84.4l19.3,14c3.1,2.2,4.4,6.2,3.2,9.8
						l-7.1,21.9c-21,11.2-38.1,28.7-49,49.9H72.9C87.3,137.8,118.4,103.3,158.3,84.4L158.3,84.4z M228.2,396.5
						c-72,0-133.3-46.7-155.3-111.4h51.7c19.2,37.7,58.3,63.7,103.5,63.7s84.3-25.9,103.5-63.7h51.7
						C361.5,349.8,300.2,396.5,228.2,396.5L228.2,396.5z M133.7,285.1h188.9c-18.5,33.2-53.9,55.7-94.5,55.7
						S152.2,318.3,133.7,285.1z M403.8,277.1H52.5C28,277.1,8,257.1,8,232.6s20-44.5,44.5-44.5h141.3c2.2,0,4-1.8,4-4s-1.8-4-4-4
						h-60.1c8.8-15.7,21.3-29,36.5-38.6c-1.3,6.4,1.2,12.8,6.6,16.7c6,4.4,13.7,4.4,19.7,0L223,139c3.1-2.2,7.2-2.2,10.3,0
						l26.5,19.2c3,2.2,6.4,3.3,9.9,3.3s6.9-1.1,9.9-3.3c5.4-3.9,7.9-10.3,6.6-16.7c15.1,9.7,27.7,22.9,36.5,38.6h-63.5
						c-2.2,0-4,1.8-4,4s1.8,4,4,4h144.7c24.5,0,44.5,20,44.5,44.5C448.3,257.1,428.4,277.1,403.8,277.1z"/>
					<path class="st5" d="M85.1,218.3H73c-0.3,0-0.6-0.2-0.7-0.5l-3.7-11.5c-1.2-3.7-4.4-6-8.3-6c-3.8,0-7.1,2.4-8.3,6l-3.7,11.5
						c-0.1,0.3-0.4,0.5-0.7,0.5H35.4c-3.9,0-7.1,2.4-8.3,6c-1.2,3.7,0.1,7.5,3.2,9.8l9.8,7.1c0.3,0.2,0.4,0.5,0.3,0.8l-3.7,11.5
						c-1.2,3.7,0.1,7.5,3.2,9.8c1.6,1.1,3.3,1.7,5.1,1.7s3.6-0.6,5.1-1.7l9.8-7.1c0.3-0.2,0.6-0.2,0.9,0l9.8,7.1
						c3.1,2.3,7.1,2.3,10.3,0s4.4-6.1,3.2-9.8l-4-11.5c-0.1-0.3,0-0.6,0.3-0.8l9.8-7.1c3.1-2.3,4.4-6.1,3.2-9.8
						C92.2,220.6,88.9,218.3,85.1,218.3L85.1,218.3z M85.5,227.6l-9.8,7.1c-3.1,2.2-4.3,6.2-3.2,9.8l3.7,11.5
						c0.1,0.2,0.2,0.5-0.3,0.8c-0.4,0.3-0.7,0.1-0.9,0l-9.8-7.1c-1.5-1.1-3.3-1.7-5.1-1.7s-3.6,0.6-5.1,1.7l-9.8,7.1
						c-0.1,0.1-0.4,0.3-0.9,0c-0.4-0.3-0.3-0.7-0.3-0.8l3.7-11.5c1.2-3.6-0.1-7.5-3.2-9.8l-9.8-7.1c-0.1-0.1-0.4-0.3-0.3-0.8
						c0.2-0.5,0.5-0.5,0.7-0.5h12.1c3.8,0,7.1-2.4,8.3-6l3.7-11.5c0-0.2,0.2-0.5,0.7-0.5s0.6,0.4,0.7,0.5l3.7,11.5
						c1.2,3.6,4.5,6,8.3,6h12.1c0.2,0,0.5,0,0.7,0.5C85.9,227.3,85.6,227.5,85.5,227.6L85.5,227.6z"/>
					<path class="st5" d="M420.9,218.3h-12.1c-0.3,0-0.6-0.2-0.7-0.5l-3.7-11.5c-1.2-3.7-4.4-6-8.3-6c-3.8,0-7.1,2.4-8.3,6
						l-3.7,11.5c-0.1,0.3-0.4,0.5-0.7,0.5h-12.1c-3.9,0-7.1,2.4-8.3,6c-1.2,3.7,0.1,7.5,3.2,9.8l9.8,7.1c0.3,0.2,0.4,0.5,0.3,0.8
						l-3.7,11.5c-1.2,3.7,0.1,7.5,3.2,9.8s7.1,2.3,10.3,0l9.8-7.1c0.3-0.2,0.6-0.2,0.9,0l9.8,7.1c1.6,1.1,3.3,1.7,5.1,1.7
						s3.6-0.6,5.1-1.7c3.1-2.3,4.4-6.1,3.2-9.8l-4-11.5c-0.1-0.3,0-0.6,0.3-0.8l9.8-7.1c3.1-2.3,4.4-6.1,3.2-9.8
						C428,220.6,424.8,218.3,420.9,218.3L420.9,218.3z M421.3,227.6l-9.8,7.1c-3.1,2.2-4.3,6.2-3.2,9.8L412,256
						c0.1,0.1,0.2,0.5-0.3,0.8c-0.4,0.3-0.7,0.1-0.9,0l-9.8-7.1c-1.5-1.1-3.3-1.7-5.1-1.7c-1.8,0-3.6,0.6-5.1,1.7l-9.8,7.1
						c-0.1,0.1-0.4,0.3-0.9,0c-0.4-0.3-0.3-0.7-0.3-0.8l3.7-11.5c1.2-3.6-0.1-7.5-3.2-9.8l-9.8-7.1c-0.1-0.1-0.4-0.3-0.3-0.8
						c0.2-0.5,0.5-0.5,0.7-0.5H383c3.8,0,7.1-2.4,8.3-6l3.7-11.5c0-0.2,0.2-0.5,0.7-0.5s0.6,0.4,0.7,0.5l3.7,11.5
						c1.2,3.6,4.5,6,8.3,6h12.1c0.2,0,0.5,0,0.7,0.5C421.8,227.3,421.5,227.5,421.3,227.6L421.3,227.6z"/>
				</g>
			</g>
		</g>
	</g>
</g>
<g class="st6">
	<path class="st2" d="M158,197.6h10.2v1.9h-8.1v6.8h6.8v1.9h-6.8v10.1H158V197.6z"/>
	<path class="st2" d="M176,197.6h10.1v1.9h-8v6.8h6.6v1.9h-6.6v8.3h8v1.9H176V197.6z"/>
	<path class="st2" d="M196.3,211.9l-1.6,6.8l-2-0.6l5.2-20.5h2.5l5.2,20.5l-2,0.6l-1.6-6.8H196.3z M199.1,200.3L199.1,200.3
		l-2.4,9.7h4.7L199.1,200.3z"/>
	<path class="st2" d="M216.7,199.4h-4.5v-1.9h10.9v1.9h-4.4v18.8h-2.1V199.4z"/>
	<path class="st2" d="M233.3,197.6v15c0,2,0.4,4,3,4s3-2,3-4v-15h2.1v15.7c0,3.2-2,5.3-5.1,5.3c-3.1,0-5.1-2.1-5.1-5.2v-15.8H233.3z
		"/>
	<path class="st2" d="M250.6,197.6h5.6c2,0,4.6,1.8,4.6,5.5c0,2.5-1,5-3.6,5.8l4.3,8.9l-1.9,0.9L255,209h-2.3v9.2h-2.1V197.6z
		 M252.7,207.2h3c1.8,0,2.9-1.3,2.9-4.1c0-2.7-1.3-3.6-3.4-3.6h-2.5V207.2z"/>
	<path class="st2" d="M269,197.6h10.1v1.9h-8v6.8h6.6v1.9h-6.6v8.3h8v1.9H269V197.6z"/>
	<path class="st2" d="M286.5,199.4v-1.9h5.5c4.2,0,6.6,1.8,6.6,10.4c0,4.6-0.2,10.3-6.5,10.3h-5.5v-1.9h1.7v-17H286.5z M290.2,216.4
		h1.7c2.5,0,4.4-0.7,4.4-8.5c0-7.9-2.1-8.5-3.9-8.5h-2.2V216.4z"/>
</g>
<g class="st6">
	<path class="st2" d="M161.6,239.6c0,0.5-0.3,0.9-0.9,0.9h-5.4c-0.6,0-0.9-0.3-0.9-0.9v-4.3c0-1.4-0.8-2.2-2.2-2.2h-2.8
		c-1.5,0-2.2,0.8-2.2,2.2v24.6c0,1.5,0.8,2.2,2.2,2.2h2.8c1.4,0,2.2-0.7,2.2-2.2v-4.3c0-0.5,0.3-0.9,0.9-0.9h5.4
		c0.5,0,0.9,0.3,0.9,0.9v5.8c0,5.1-2.8,7.8-7.8,7.8h-6c-5.1,0-7.8-2.7-7.8-7.8v-27.6c0-5.1,2.8-7.8,7.8-7.8h6c5,0,7.8,2.7,7.8,7.8
		V239.6z"/>
	<path class="st2" d="M186.7,269.2c-0.5,0-0.8-0.3-0.9-0.8l-1.5-7.9h-9.6l-1.5,7.9c-0.1,0.5-0.4,0.8-0.9,0.8h-5.8
		c-0.6,0-0.9-0.3-0.7-0.9l9-41.5c0.1-0.5,0.4-0.8,0.9-0.8h7.5c0.5,0,0.8,0.2,0.9,0.8l9,41.5c0.1,0.6-0.1,0.9-0.8,0.9H186.7z
		 M179.5,235.4l-3.5,18.8h6.9L179.5,235.4z"/>
	<path class="st2" d="M210.3,226c5.1,0,7.8,2.7,7.8,7.8v5.7c0,0.5-0.3,0.9-0.9,0.9h-5.6c-0.5,0-0.9-0.3-0.9-0.9v-4.2
		c0-1.4-0.7-2.2-2.2-2.2H206c-1.3,0-2.2,0.8-2.2,2.2v7.5l12.9,4.2c0.9,0.4,1.4,1,1.4,2v12.5c0,5.1-2.7,7.8-7.8,7.8h-6
		c-5,0-7.8-2.7-7.8-7.8v-5.7c0-0.6,0.3-0.9,0.9-0.9h5.6c0.6,0,0.9,0.3,0.9,0.9v4.2c0,1.5,0.8,2.2,2.2,2.2h2.6c1.4,0,2.2-0.7,2.2-2.2
		v-7.2l-12.8-4.2c-1-0.3-1.5-1-1.5-2v-12.7c0-5.1,2.8-7.8,7.8-7.8H210.3z"/>
	<path class="st2" d="M229.9,226c0.5,0,0.9,0.3,0.9,0.9v41.5c0,0.5-0.3,0.9-0.9,0.9h-5.6c-0.6,0-0.9-0.3-0.9-0.9v-41.5
		c0-0.5,0.3-0.9,0.9-0.9H229.9z"/>
	<path class="st2" d="M258.4,226c0.5,0,0.9,0.3,0.9,0.9v41.5c0,0.5-0.3,0.9-0.9,0.9H253c-0.5,0-0.8-0.2-1-0.7l-8.3-23.1h-0.3v22.9
		c0,0.5-0.3,0.9-0.9,0.9h-5.6c-0.5,0-0.9-0.3-0.9-0.9v-41.5c0-0.5,0.3-0.9,0.9-0.9h5.3c0.5,0,0.8,0.2,1,0.7l8.2,23h0.3v-22.8
		c0-0.5,0.3-0.9,0.9-0.9H258.4z"/>
	<path class="st2" d="M264.7,233.8c0-5.1,2.7-7.8,7.8-7.8h6c5.1,0,7.8,2.7,7.8,7.8v27.6c0,5.1-2.7,7.8-7.8,7.8h-6
		c-5.1,0-7.8-2.7-7.8-7.8V233.8z M277.1,262.2c1.4,0,2.2-0.7,2.2-2.2v-24.9c0-1.4-0.8-2.2-2.2-2.2H274c-1.4,0-2.2,0.8-2.2,2.2v24.9
		c0,1.5,0.8,2.2,2.2,2.2H277.1z"/>
	<path class="st2" d="M305.5,226c5.1,0,7.8,2.7,7.8,7.8v5.7c0,0.5-0.3,0.9-0.9,0.9h-5.6c-0.5,0-0.9-0.3-0.9-0.9v-4.2
		c0-1.4-0.7-2.2-2.2-2.2h-2.6c-1.3,0-2.2,0.8-2.2,2.2v7.5l12.9,4.2c0.9,0.4,1.4,1,1.4,2v12.5c0,5.1-2.7,7.8-7.8,7.8h-6
		c-5,0-7.8-2.7-7.8-7.8v-5.7c0-0.6,0.3-0.9,0.9-0.9h5.6c0.6,0,0.9,0.3,0.9,0.9v4.2c0,1.5,0.8,2.2,2.2,2.2h2.6c1.4,0,2.2-0.7,2.2-2.2
		v-7.2l-12.8-4.2c-1-0.3-1.5-1-1.5-2v-12.7c0-5.1,2.8-7.8,7.8-7.8H305.5z"/>
</g>
</svg>
